<svg viewBox="0 0 20 21" fill="currentFill" xmlns="http://www.w3.org/2000/svg">
<path fill-rule="evenodd" clip-rule="evenodd" d="M3.125 8C2.77982 8 2.5 8.27982 2.5 8.625V17.375C2.5 17.7202 2.77982 18 3.125 18H8.75C9.09518 18 9.375 17.7202 9.375 17.375V8.625C9.375 8.27982 9.09518 8 8.75 8H3.125ZM5 11.125C5 10.7798 5.27982 10.5 5.625 10.5H6.25C6.59518 10.5 6.875 10.7798 6.875 11.125V11.75C6.875 12.0952 6.59518 12.375 6.25 12.375H5.625C5.27982 12.375 5 12.0952 5 11.75V11.125ZM5 13.625C5 13.2798 5.27982 13 5.625 13H6.25C6.59518 13 6.875 13.2798 6.875 13.625V14.25C6.875 14.5952 6.59518 14.875 6.25 14.875H5.625C5.27982 14.875 5 14.5952 5 14.25V13.625Z" fill="currentFill"/>
<path fill-rule="evenodd" clip-rule="evenodd" d="M8.75 3C8.40482 3 8.125 3.27982 8.125 3.625V17.375C8.125 17.7202 8.40482 18 8.75 18H16.875C17.2202 18 17.5 17.7202 17.5 17.375V3.625C17.5 3.27982 17.2202 3 16.875 3H8.75ZM11.25 5.5C10.9048 5.5 10.625 5.77982 10.625 6.125V6.75C10.625 7.09518 10.9048 7.375 11.25 7.375H11.875C12.2202 7.375 12.5 7.09518 12.5 6.75V6.125C12.5 5.77982 12.2202 5.5 11.875 5.5H11.25ZM11.25 8C10.9048 8 10.625 8.27982 10.625 8.625V9.25C10.625 9.59518 10.9048 9.875 11.25 9.875H11.875C12.2202 9.875 12.5 9.59518 12.5 9.25V8.625C12.5 8.27982 12.2202 8 11.875 8H11.25ZM13.125 6.125C13.125 5.77982 13.4048 5.5 13.75 5.5H14.375C14.7202 5.5 15 5.77982 15 6.125V6.75C15 7.09518 14.7202 7.375 14.375 7.375H13.75C13.4048 7.375 13.125 7.09518 13.125 6.75V6.125ZM13.75 8C13.4048 8 13.125 8.27982 13.125 8.625V9.25C13.125 9.59518 13.4048 9.875 13.75 9.875H14.375C14.7202 9.875 15 9.59518 15 9.25V8.625C15 8.27982 14.7202 8 14.375 8H13.75ZM10.625 13.4688C10.625 13.2099 10.9048 13 11.25 13H14.375C14.7202 13 15 13.2099 15 13.4688V16.75H10.625V13.4688Z" fill="currentFill"/>
</svg>
