<svg viewBox="0 0 18 19" fill="currentFill" xmlns="http://www.w3.org/2000/svg">
<path fill-rule="evenodd" clip-rule="evenodd" d="M1.6875 15.6875C1.6875 15.3768 1.93934 15.125 2.25 15.125L15.75 15.125C16.0607 15.125 16.3125 15.3768 16.3125 15.6875C16.3125 15.9982 16.0607 16.25 15.75 16.25L2.25 16.25C1.93934 16.25 1.6875 15.9982 1.6875 15.6875Z" fill="currentFill"/>
<path fill-rule="evenodd" clip-rule="evenodd" d="M2.8125 11.1875C2.8125 10.8768 3.06434 10.625 3.375 10.625H5.625C5.93566 10.625 6.1875 10.8768 6.1875 11.1875V15.6875C6.1875 15.9982 5.93566 16.25 5.625 16.25H3.375C3.06434 16.25 2.8125 15.9982 2.8125 15.6875V11.1875Z" fill="currentFill"/>
<path fill-rule="evenodd" clip-rule="evenodd" d="M7.3125 8.9375C7.3125 8.62684 7.56434 8.375 7.875 8.375H10.125C10.4357 8.375 10.6875 8.62684 10.6875 8.9375V15.6875C10.6875 15.9982 10.4357 16.25 10.125 16.25H7.875C7.56434 16.25 7.3125 15.9982 7.3125 15.6875V8.9375Z" fill="currentFill"/>
<path fill-rule="evenodd" clip-rule="evenodd" d="M11.8125 6.6875C11.8125 6.37684 12.0643 6.125 12.375 6.125H14.625C14.9357 6.125 15.1875 6.37684 15.1875 6.6875V15.6875C15.1875 15.9982 14.9357 16.25 14.625 16.25H12.375C12.0643 16.25 11.8125 15.9982 11.8125 15.6875V6.6875Z" fill="currentFill"/>
<path d="M5.625 7.8125C5.625 8.43382 5.12132 8.9375 4.5 8.9375C3.87868 8.9375 3.375 8.43382 3.375 7.8125C3.375 7.19118 3.87868 6.6875 4.5 6.6875C5.12132 6.6875 5.625 7.19118 5.625 7.8125Z" fill="currentFill"/>
<path d="M10.125 5.5625C10.125 6.18382 9.62132 6.6875 9 6.6875C8.37868 6.6875 7.875 6.18382 7.875 5.5625C7.875 4.94118 8.37868 4.4375 9 4.4375C9.62132 4.4375 10.125 4.94118 10.125 5.5625Z" fill="currentFill"/>
<path d="M14.625 3.3125C14.625 3.93382 14.1213 4.4375 13.5 4.4375C12.8787 4.4375 12.375 3.93382 12.375 3.3125C12.375 2.69118 12.8787 2.1875 13.5 2.1875C14.1213 2.1875 14.625 2.69118 14.625 3.3125Z" fill="currentFill"/>
<path fill-rule="evenodd" clip-rule="evenodd" d="M3.99667 8.06403C3.85774 7.78617 3.97037 7.44829 4.24823 7.30936L13.2482 2.80936C13.5261 2.67042 13.864 2.78305 14.0029 3.06091C14.1418 3.33878 14.0292 3.67665 13.7513 3.81559L4.75135 8.31559C4.47348 8.45452 4.13561 8.34189 3.99667 8.06403Z" fill="currentFill"/>
</svg>
