<svg viewBox="0 0 80 80" fill="currentFill" xmlns="http://www.w3.org/2000/svg">
<path fill-rule="evenodd" clip-rule="evenodd" d="M17.5 12.5C14.7386 12.5 12.5 14.7386 12.5 17.5C12.5 20.2614 14.7386 22.5 17.5 22.5C20.2614 22.5 22.5 20.2614 22.5 17.5C22.5 14.7386 20.2614 12.5 17.5 12.5ZM35 17.5C35 14.7386 37.2386 12.5 40 12.5C42.7614 12.5 45 14.7386 45 17.5C45 20.2614 42.7614 22.5 40 22.5C37.2386 22.5 35 20.2614 35 17.5ZM57.5 17.5C57.5 14.7386 59.7386 12.5 62.5 12.5C65.2614 12.5 67.5 14.7386 67.5 17.5C67.5 20.2614 65.2614 22.5 62.5 22.5C59.7386 22.5 57.5 20.2614 57.5 17.5ZM12.5 40C12.5 37.2386 14.7386 35 17.5 35C20.2614 35 22.5 37.2386 22.5 40C22.5 42.7614 20.2614 45 17.5 45C14.7386 45 12.5 42.7614 12.5 40ZM17.5 57.5C14.7386 57.5 12.5 59.7386 12.5 62.5C12.5 65.2614 14.7386 67.5 17.5 67.5C20.2614 67.5 22.5 65.2614 22.5 62.5C22.5 59.7386 20.2614 57.5 17.5 57.5Z" fill="currentFill"/>
<path fill-rule="evenodd" clip-rule="evenodd" d="M35.4882 35.5231C35.9279 35.052 36.5757 34.8823 37.1686 35.0829L68.8352 45.7972C69.5148 46.0271 69.9827 46.6946 69.9995 47.458C70.0163 48.2213 69.5782 48.9117 68.9095 49.1756L53.798 55.1407L48.2306 71.3316C47.9842 72.0481 47.3399 72.5175 46.6274 72.4995C45.915 72.4815 45.292 71.9802 45.0774 71.252L35.0774 37.3235C34.8902 36.6882 35.0485 35.9941 35.4882 35.5231Z" fill="#404040"/>
</svg>
