<svg viewBox="0 0 21 20" fill="currentFill" xmlns="http://www.w3.org/2000/svg">
<path fill-rule="evenodd" clip-rule="evenodd" d="M4.875 3.125C4.18464 3.125 3.625 3.68464 3.625 4.375C3.625 5.06536 4.18464 5.625 4.875 5.625C5.56536 5.625 6.125 5.06536 6.125 4.375C6.125 3.68464 5.56536 3.125 4.875 3.125ZM9.25 4.375C9.25 3.68464 9.80964 3.125 10.5 3.125C11.1904 3.125 11.75 3.68464 11.75 4.375C11.75 5.06536 11.1904 5.625 10.5 5.625C9.80964 5.625 9.25 5.06536 9.25 4.375ZM14.875 4.375C14.875 3.68464 15.4346 3.125 16.125 3.125C16.8154 3.125 17.375 3.68464 17.375 4.375C17.375 5.06536 16.8154 5.625 16.125 5.625C15.4346 5.625 14.875 5.06536 14.875 4.375ZM3.625 10C3.625 9.30964 4.18464 8.75 4.875 8.75C5.56536 8.75 6.125 9.30964 6.125 10C6.125 10.6904 5.56536 11.25 4.875 11.25C4.18464 11.25 3.625 10.6904 3.625 10ZM4.875 14.375C4.18464 14.375 3.625 14.9346 3.625 15.625C3.625 16.3154 4.18464 16.875 4.875 16.875C5.56536 16.875 6.125 16.3154 6.125 15.625C6.125 14.9346 5.56536 14.375 4.875 14.375Z" fill="currentFill"/>
<path d="M18 12.5C18 12.6658 17.9342 12.8247 17.8169 12.9419C17.6997 13.0592 17.5408 13.125 17.375 13.125H13.625V16.875C13.625 17.0408 13.5592 17.1997 13.4419 17.3169C13.3247 17.4342 13.1658 17.5 13 17.5C12.8342 17.5 12.6753 17.4342 12.5581 17.3169C12.4408 17.1997 12.375 17.0408 12.375 16.875V13.125H8.625C8.45924 13.125 8.30027 13.0592 8.18306 12.9419C8.06585 12.8247 8 12.6658 8 12.5C8 12.3342 8.06585 12.1753 8.18306 12.0581C8.30027 11.9408 8.45924 11.875 8.625 11.875H12.375V8.125C12.375 7.95924 12.4408 7.80027 12.5581 7.68306C12.6753 7.56585 12.8342 7.5 13 7.5C13.1658 7.5 13.3247 7.56585 13.4419 7.68306C13.5592 7.80027 13.625 7.95924 13.625 8.125V11.875H17.375C17.5408 11.875 17.6997 11.9408 17.8169 12.0581C17.9342 12.1753 18 12.3342 18 12.5Z" fill="currentFill"/>
</svg>
