<svg viewBox="0 0 18 19" fill="currentFill" xmlns="http://www.w3.org/2000/svg">
<path fill-rule="evenodd" clip-rule="evenodd" d="M3.9375 3.3125C3.31618 3.3125 2.8125 3.81618 2.8125 4.4375C2.8125 5.05882 3.31618 5.5625 3.9375 5.5625C4.55882 5.5625 5.0625 5.05882 5.0625 4.4375C5.0625 3.81618 4.55882 3.3125 3.9375 3.3125ZM7.875 4.4375C7.875 3.81618 8.37868 3.3125 9 3.3125C9.62132 3.3125 10.125 3.81618 10.125 4.4375C10.125 5.05882 9.62132 5.5625 9 5.5625C8.37868 5.5625 7.875 5.05882 7.875 4.4375ZM12.9375 4.4375C12.9375 3.81618 13.4412 3.3125 14.0625 3.3125C14.6838 3.3125 15.1875 3.81618 15.1875 4.4375C15.1875 5.05882 14.6838 5.5625 14.0625 5.5625C13.4412 5.5625 12.9375 5.05882 12.9375 4.4375ZM12.9375 9.5C12.9375 8.87868 13.4412 8.375 14.0625 8.375C14.6838 8.375 15.1875 8.87868 15.1875 9.5C15.1875 10.1213 14.6838 10.625 14.0625 10.625C13.4412 10.625 12.9375 10.1213 12.9375 9.5ZM9 8.375C8.37868 8.375 7.875 8.87868 7.875 9.5C7.875 10.1213 8.37868 10.625 9 10.625C9.62132 10.625 10.125 10.1213 10.125 9.5C10.125 8.87868 9.62132 8.375 9 8.375ZM2.8125 9.5C2.8125 8.87868 3.31618 8.375 3.9375 8.375C4.55882 8.375 5.0625 8.87868 5.0625 9.5C5.0625 10.1213 4.55882 10.625 3.9375 10.625C3.31618 10.625 2.8125 10.1213 2.8125 9.5ZM14.0625 13.4375C13.4412 13.4375 12.9375 13.9412 12.9375 14.5625C12.9375 15.1838 13.4412 15.6875 14.0625 15.6875C14.6838 15.6875 15.1875 15.1838 15.1875 14.5625C15.1875 13.9412 14.6838 13.4375 14.0625 13.4375ZM7.875 14.5625C7.875 13.9412 8.37868 13.4375 9 13.4375C9.62132 13.4375 10.125 13.9412 10.125 14.5625C10.125 15.1838 9.62132 15.6875 9 15.6875C8.37868 15.6875 7.875 15.1838 7.875 14.5625ZM3.9375 13.4375C3.31618 13.4375 2.8125 13.9412 2.8125 14.5625C2.8125 15.1838 3.31618 15.6875 3.9375 15.6875C4.55882 15.6875 5.0625 15.1838 5.0625 14.5625C5.0625 13.9412 4.55882 13.4375 3.9375 13.4375Z" fill="currentFill"/>
</svg>
