<svg viewBox="0 0 126 125" fill="currentFill" xmlns="http://www.w3.org/2000/svg">
<path fill-rule="evenodd" clip-rule="evenodd" d="M63 23.4375C41.4264 23.4375 23.9375 40.9264 23.9375 62.5C23.9375 84.0736 41.4264 101.562 63 101.562C84.5736 101.562 102.062 84.0736 102.062 62.5C102.062 61.1408 101.993 59.7988 101.858 58.4772C101.285 58.5543 100.701 58.5938 100.109 58.5938C92.6348 58.5938 86.4375 52.3006 86.4375 43.3482C86.4375 39.5237 87.6443 35.7805 88.8773 32.7383C88.3579 32.6043 87.8579 32.3606 87.4122 32.0034C80.724 26.6419 72.2416 23.4375 63 23.4375ZM92.1515 25.7902C84.15 19.4283 74.0139 15.625 63 15.625C37.1117 15.625 16.125 36.6117 16.125 62.5C16.125 88.3883 37.1117 109.375 63 109.375C88.8883 109.375 109.875 88.3883 109.875 62.5C109.875 59.8938 109.662 57.3346 109.252 54.8396C112.024 52.1292 113.781 48.1158 113.781 43.3482C113.781 38.435 111.647 33.3625 110.188 30.0526C110.137 29.9369 110.083 29.8224 110.027 29.7093L107.097 23.8499C105.774 21.2031 103.069 19.5312 100.109 19.5312C97.1502 19.5312 94.445 21.2031 93.1217 23.8499L92.1515 25.7902ZM51.2812 56.6406C51.2812 59.8767 48.6579 62.5 45.4219 62.5C42.1858 62.5 39.5625 59.8767 39.5625 56.6406C39.5625 53.4046 42.1858 50.7812 45.4219 50.7812C48.6579 50.7812 51.2812 53.4046 51.2812 56.6406ZM80.5781 62.5C83.8142 62.5 86.4375 59.8767 86.4375 56.6406C86.4375 53.4046 83.8142 50.7812 80.5781 50.7812C77.3421 50.7812 74.7188 53.4046 74.7188 56.6406C74.7188 59.8767 77.3421 62.5 80.5781 62.5ZM47.375 78.125C47.375 75.9676 49.1239 74.2188 51.2812 74.2188H74.7188C76.8761 74.2188 78.625 75.9676 78.625 78.125C78.625 80.2824 76.8761 82.0312 74.7188 82.0312H51.2812C49.1239 82.0312 47.375 80.2824 47.375 78.125ZM100.109 27.3438L97.1797 33.2031C96.7145 34.2455 96.2653 35.2881 95.8642 36.3228C94.9254 38.7444 94.25 41.122 94.25 43.3482C94.25 48.5045 97.4505 50.7812 100.109 50.7812C102.768 50.7812 105.969 48.5045 105.969 43.3482C105.969 41.2203 105.282 38.7988 104.344 36.3442C103.943 35.2964 103.497 34.2427 103.039 33.2031L100.109 27.3438Z" fill="currentFill"/>
</svg>
