<svg xmlns="http://www.w3.org/2000/svg" xml:space="preserve" viewBox="0 0 440.47031 300.00001"><path d="m347.519 394.564-37.002 37.007-37.012-37.007 37.012-37.012z" style="fill:#004da0;fill-opacity:1;fill-rule:nonzero;stroke:none;stroke-width:1.83416" transform="matrix(2.42698 0 0 -2.42698 -533.936 1047.417)"/><path d="M220 430.452h37.472V357.47H220ZM364.028 430.452h37.46V357.47h-37.46z" style="fill:#6eb329;fill-opacity:1;fill-rule:nonzero;stroke:none;stroke-width:1.83416" transform="matrix(2.42698 0 0 -2.42698 -533.936 1047.417)"/><path d="M645.695 363.782c-12.608 0-22.82 5.356-22.82 11.99 0 6.598 10.212 11.955 22.82 11.955 12.599 0 22.815-5.357 22.815-11.955 0-6.634-10.216-11.99-22.815-11.99m40.698 32.293h-9.222s3.921 1.052 3.927 9.473v12.02c0 3.259-2.614 5.92-5.882 5.92h-64.629v-6.42h56.658V402.56s.311-5.897-4.872-6.485l-18.67-.01v8.742a3.905 3.905 0 0 1-3.916 3.922h-9.992v-12.663l-24.532-.01v-6.419h16.469c-7.59-3.408-12.364-8.4-12.364-13.97 0-10.27 16.3-18.616 36.398-18.616 20.105 0 36.414 8.346 36.414 18.615 0 5.57-4.783 10.563-12.368 13.971h16.581zM734.313 363.046c-10.744 0-19.466 4.723-19.466 10.508 0 5.798 8.722 10.5 19.466 10.5 10.737 0 22.693-4.702 22.693-10.5 0-5.785-11.956-10.508-22.693-10.508m22.647 42.476h-9.85c.224.843.347 1.71.347 2.599 0 .955-.134 1.887-.398 2.806h9.9zm-36.337-6.827c-7.032 0-12.73 4.233-12.73 9.442 0 5.193 5.698 9.437 12.73 9.437 7.021 0 12.725-4.244 12.725-9.437 0-5.209-5.704-9.442-12.725-9.442m50.496-24V418.1c0 3.318-2.69 6.009-6 6.009H757v-6.687h-14.41c-4.845 4.17-12.862 6.902-21.952 6.902-14.824 0-26.834-7.25-26.834-16.203 0-8.936 12.01-16.198 26.834-16.198 9.222 0 17.367 2.808 22.177 7.093h14.176v-11.93c-5.5 1.963-15.499 3.113-22.775 3.113-18.65 0-33.78-7.535-33.78-16.817 0-9.28 15.13-16.81 33.78-16.81 18.642 0 37.012 7.53 37.012 16.81 0 .449-.046.884-.109 1.313M441.344 403.56c0 5.333 4.811 9.652 10.734 9.652 5.939 0 10.75-4.32 10.75-9.651 0-5.325-4.811-9.657-10.75-9.657-5.923 0-10.734 4.332-10.734 9.657m35.143-.602c0 4.309-2.634 8.206-6.908 11.071h18.51v6.44h-29.065v3.578a3.936 3.936 0 0 1-3.933 3.942H445.2v-7.52h-19.011v-6.44h8.354c-4.27-2.865-6.909-6.762-6.909-11.07 0-8.79 10.933-15.903 24.418-15.903 13.498 0 24.435 7.113 24.435 15.902" style="fill:#3e3a39;fill-opacity:1;fill-rule:nonzero;stroke:none;stroke-width:1.83416" transform="matrix(1.27658 0 0 -1.27658 -544.064 755.193)"/><path d="M499.681 410.107v7.53c0 3.26-2.61 5.895-5.867 5.895h-7.94v-54.827a2.733 2.733 0 0 0-2.759-2.757h-35.163c-1.546 0-2.799 1.297-2.799 2.849l-.009 14.601h-13.85v-13.402c0-5.785 4.685-10.467 10.464-10.467h47.476a10.463 10.463 0 0 1 10.467 10.467v33.714h10.055v6.397zM545.017 416.817c.526.011.678-.038 1.296-.038.521 0 .985-.283 1.216-.712l17.157-26.212h7.45l-18.598 28.362c-1.638 2.639-3.14 4.193-6.792 4.193H533.86l-19.997-32.779h14.58z" style="fill:#3e3a39;fill-opacity:1;fill-rule:nonzero;stroke:none;stroke-width:1.83416" transform="matrix(1.27658 0 0 -1.27658 -544.064 755.193)"/><path d="M585.914 423.262h-7.977v-54.843c0-1.543-1.194-2.752-2.731-2.752h-36.21c-1.558 0-2.814 1.297-2.814 2.838l-.005 14.007h-13.854v-12.786a10.463 10.463 0 0 1 10.473-10.478h48.538c5.775 0 10.447 4.671 10.447 10.478v47.643c0 3.244-2.62 5.893-5.867 5.893" style="fill:#3e3a39;fill-opacity:1;fill-rule:nonzero;stroke:none;stroke-width:1.83416" transform="matrix(1.27658 0 0 -1.27658 -544.064 755.193)"/></svg>