<svg viewBox="0 0 379 278" fill="none" xmlns="http://www.w3.org/2000/svg">
<path d="M147.309 16.0483L190.553 1V16.0483L168.931 24.0085L147.309 16.0483Z" fill="#5085EA"/>
<path d="M233.806 16.0483L190.553 1V16.0483L212.184 24.0085L233.806 16.0483Z" fill="#5085EA"/>
<path d="M190.553 46.5948L122.051 21.6765V35.9444L190.379 63.8006L190.572 63.718V46.5856L190.553 46.5948Z" fill="#5085EA"/>
<path d="M258.715 36.2933V21.6765L190.571 46.5856V63.718L245.972 41.4257V60.8259L190.571 81.08V98.2124L258.715 70.7877V56.1709H258.697L258.66 36.3116L258.715 36.2933Z" fill="#5085EA"/>
<path d="M258.715 105.282V90.6652L190.571 115.574V132.707L258.715 105.282Z" fill="#5085EA"/>
<path d="M190.379 98.2948L190.572 98.2122V81.0798L190.553 81.0889L122.051 56.1707V70.4386V90.6651V104.933L190.379 132.78L190.572 132.707V115.574L190.553 115.583L134.777 95.2925L134.749 75.6168L190.379 98.2948Z" fill="#5085EA"/>
<path d="M378.706 245.08H287.395V233.637H378.706V245.08ZM339.683 277.78H325.835V240.852H339.683V277.78ZM332.779 181.155C339.89 181.155 346.2 182.086 351.708 183.948C357.216 185.81 361.509 188.447 364.586 191.861C367.664 195.274 369.202 199.257 369.202 203.808C369.202 208.282 367.664 212.199 364.586 215.561C361.509 218.923 357.216 221.522 351.708 223.358C346.2 225.168 339.89 226.073 332.779 226.073C325.667 226.073 319.37 225.168 313.888 223.358C308.432 221.522 304.178 218.923 301.126 215.561C298.075 212.199 296.549 208.282 296.549 203.808C296.549 199.257 298.075 195.274 301.126 191.861C304.178 188.447 308.432 185.81 313.888 183.948C319.37 182.086 325.667 181.155 332.779 181.155ZM332.779 192.326C328.305 192.352 324.426 192.818 321.142 193.723C317.883 194.602 315.362 195.908 313.578 197.64C311.819 199.347 310.953 201.403 310.979 203.808C310.953 206.187 311.819 208.204 313.578 209.859C315.362 211.514 317.883 212.794 321.142 213.699C324.426 214.579 328.305 215.018 332.779 215.018C337.304 215.018 341.209 214.579 344.493 213.699C347.777 212.794 350.299 211.514 352.057 209.859C353.841 208.204 354.734 206.187 354.734 203.808C354.734 201.403 353.841 199.347 352.057 197.64C350.299 195.908 347.777 194.602 344.493 193.723C341.209 192.818 337.304 192.352 332.779 192.326Z" fill="black"/>
<path d="M283.287 227.121H265.56V215.678H283.287V227.121ZM269.168 277.47H255.165V177.78H269.168V277.47ZM207.531 249.347H193.567V187.361H207.531V249.347ZM202.217 241.55C209.871 241.576 217.526 241.253 225.18 240.581C232.861 239.882 240.606 238.757 248.415 237.206L249.889 248.882C242.08 250.433 234.231 251.532 226.344 252.179C218.482 252.799 210.44 253.097 202.217 253.071H193.567V241.55H202.217Z" fill="black"/>
<path d="M174.68 235.266H104.083V224.056H174.68V235.266ZM184.649 265.522H93.3381V254.002H184.649V265.522ZM173.982 197.485H117.892V228.789H104.083V186.159H173.982V197.485Z" fill="black"/>
<path d="M79.6496 229.215H65.7629V177.78H79.6496V229.215ZM79.8047 259.859H26.7016V270.72H13.0476V249.929H65.8404V244.11H12.8149V233.404H79.8047V259.859ZM82.52 277.004H13.0476V266.221H82.52V277.004ZM15.1423 193.567H36.0887V182.047H50.053V226.073H1.29434V182.047H15.1423V193.567ZM36.0887 215.057V204.235H15.1423V215.057H36.0887Z" fill="black"/>
</svg>
