<svg viewBox="0 0 20 20" fill="none" xmlns="http://www.w3.org/2000/svg">
<path fill-rule="evenodd" clip-rule="evenodd" d="M16.875 2.5C16.875 2.28241 16.7618 2.08048 16.5762 1.96691C16.3906 1.85333 16.1593 1.84445 15.9656 1.94346L8.22456 5.89939H3.125C2.77982 5.89939 2.5 6.17921 2.5 6.52439V11.8902C2.5 12.2354 2.77982 12.5152 3.125 12.5152H3.75V16.875C3.75 17.2202 4.02982 17.5 4.375 17.5H6.875C7.22018 17.5 7.5 17.2202 7.5 16.875V12.5152H8.21354L15.9473 16.7968C16.1409 16.904 16.3767 16.9008 16.5674 16.7884C16.758 16.6761 16.875 16.4713 16.875 16.25V2.5Z" fill="#737373"/>
</svg>
