<svg viewBox="0 0 18 19" fill="currentFill" xmlns="http://www.w3.org/2000/svg">
<path fill-rule="evenodd" clip-rule="evenodd" d="M2.25 8.375C2.25 8.06434 2.50184 7.8125 2.8125 7.8125H6.1875C6.49816 7.8125 6.75 8.06434 6.75 8.375V9.97917H11.25V8.375C11.25 8.06434 11.5018 7.8125 11.8125 7.8125H15.1875C15.4982 7.8125 15.75 8.06434 15.75 8.375V15.6875C15.75 15.9982 15.4982 16.25 15.1875 16.25H2.8125C2.50184 16.25 2.25 15.9982 2.25 15.6875V8.375Z" fill="currentFill"/>
<path fill-rule="evenodd" clip-rule="evenodd" d="M3.9375 3.3125C3.9375 3.00184 4.18934 2.75 4.5 2.75H13.5C13.8107 2.75 14.0625 3.00184 14.0625 3.3125V6.6875H11.25C10.6287 6.6875 10.125 7.19118 10.125 7.8125V8.9375H7.875V7.8125C7.875 7.19118 7.37132 6.6875 6.75 6.6875H3.9375V3.3125Z" fill="currentFill"/>
</svg>
