<svg viewBox="0 0 12 13" fill="currentFill" xmlns="http://www.w3.org/2000/svg">
<path fill-rule="evenodd" clip-rule="evenodd" d="M3.2916 2.44659C4.09329 1.91091 5.03582 1.625 6 1.625C7.29251 1.62636 8.5317 2.14042 9.44564 3.05436C10.3596 3.96831 10.8736 5.20749 10.875 6.5C10.875 7.46418 10.5891 8.40671 10.0534 9.2084C9.51774 10.0101 8.75637 10.6349 7.86558 11.0039C6.97479 11.3729 5.99459 11.4694 5.04894 11.2813C4.10328 11.0932 3.23464 10.6289 2.55286 9.94715C1.87108 9.26536 1.40678 8.39672 1.21867 7.45107C1.03057 6.50541 1.12711 5.52521 1.49609 4.63442C1.86507 3.74363 2.48991 2.98226 3.2916 2.44659ZM6.18916 3.69577C6.11178 3.53899 5.88822 3.53899 5.81084 3.69577L5.05719 5.22284C5.02647 5.2851 4.96707 5.32825 4.89837 5.33823L3.21315 5.58311C3.04013 5.60825 2.97105 5.82087 3.09624 5.9429L4.31568 7.13156C4.3654 7.18002 4.38808 7.24984 4.37635 7.31827L4.08848 8.99668C4.05892 9.16899 4.23979 9.3004 4.39454 9.21904L5.90184 8.4266C5.96329 8.3943 6.03671 8.3943 6.09816 8.4266L7.60547 9.21904C7.76021 9.3004 7.94108 9.16899 7.91152 8.99668L7.62365 7.31827C7.61192 7.24984 7.6346 7.18002 7.68432 7.13156L8.90376 5.9429C9.02895 5.82087 8.95987 5.60825 8.78685 5.58311L7.10163 5.33823C7.03293 5.32825 6.97353 5.2851 6.94281 5.22284L6.18916 3.69577Z" fill="currentFill"/>
</svg>
