<svg viewBox="0 0 16 17" fill="currentFill" xmlns="http://www.w3.org/2000/svg">
<path d="M8 2.35095C6.71442 2.35095 5.45772 2.73217 4.3888 3.4464C3.31988 4.16063 2.48676 5.17579 1.99479 6.36351C1.50282 7.55123 1.37409 8.85816 1.6249 10.119C1.8757 11.3799 2.49477 12.5381 3.40381 13.4471C4.31285 14.3562 5.47104 14.9753 6.73192 15.2261C7.99279 15.4769 9.29973 15.3481 10.4874 14.8562C11.6752 14.3642 12.6903 13.5311 13.4046 12.4622C14.1188 11.3932 14.5 10.1365 14.5 8.85095C14.4982 7.1276 13.8128 5.47536 12.5942 4.25677C11.3756 3.03818 9.72335 2.35277 8 2.35095ZM8 14.351C6.91221 14.351 5.84884 14.0284 4.94437 13.424C4.0399 12.8197 3.33495 11.9607 2.91867 10.9557C2.50238 9.95072 2.39347 8.84485 2.60568 7.77796C2.8179 6.71106 3.34173 5.73105 4.11092 4.96186C4.8801 4.19268 5.86011 3.66885 6.92701 3.45663C7.9939 3.24441 9.09977 3.35333 10.1048 3.76961C11.1098 4.1859 11.9687 4.89085 12.5731 5.79532C13.1774 6.69979 13.5 7.76315 13.5 8.85095C13.4983 10.3091 12.9184 11.7071 11.8873 12.7382C10.8562 13.7693 9.45819 14.3493 8 14.351ZM7.5 9.35095V5.85095C7.5 5.71834 7.55268 5.59117 7.64645 5.4974C7.74022 5.40363 7.86739 5.35095 8 5.35095C8.13261 5.35095 8.25979 5.40363 8.35356 5.4974C8.44732 5.59117 8.5 5.71834 8.5 5.85095V9.35095C8.5 9.48356 8.44732 9.61074 8.35356 9.70451C8.25979 9.79827 8.13261 9.85095 8 9.85095C7.86739 9.85095 7.74022 9.79827 7.64645 9.70451C7.55268 9.61074 7.5 9.48356 7.5 9.35095ZM8.75 11.601C8.75 11.7493 8.70602 11.8943 8.6236 12.0176C8.54119 12.141 8.42406 12.2371 8.28701 12.2939C8.14997 12.3506 7.99917 12.3655 7.85368 12.3365C7.7082 12.3076 7.57456 12.2362 7.46967 12.1313C7.36478 12.0264 7.29335 11.8928 7.26441 11.7473C7.23547 11.6018 7.25033 11.451 7.30709 11.3139C7.36386 11.1769 7.45999 11.0598 7.58333 10.9774C7.70666 10.8949 7.85167 10.851 8 10.851C8.19892 10.851 8.38968 10.93 8.53033 11.0706C8.67098 11.2113 8.75 11.402 8.75 11.601Z" fill="currentFill"/>
</svg>
