<svg viewBox="0 0 20 21" fill="currentFill" xmlns="http://www.w3.org/2000/svg">
<path d="M3.30771 12.5578L9.55771 6.30783C9.61576 6.24972 9.68469 6.20362 9.76056 6.17217C9.83643 6.14071 9.91776 6.12453 9.9999 6.12453C10.082 6.12453 10.1634 6.14072 10.2392 6.17217C10.3151 6.20362 10.384 6.24972 10.4421 6.30783L16.6921 12.5578C16.8094 12.6751 16.8752 12.8342 16.8752 13C16.8752 13.1659 16.8094 13.3249 16.6921 13.4422C16.5748 13.5595 16.4157 13.6254 16.2499 13.6254C16.084 13.6254 15.925 13.5595 15.8077 13.4422L9.9999 7.63361L4.19208 13.4422C4.13402 13.5003 4.06508 13.5463 3.98921 13.5778C3.91334 13.6092 3.83202 13.6254 3.7499 13.6254C3.66777 13.6254 3.58646 13.6092 3.51059 13.5778C3.43472 13.5463 3.36578 13.5003 3.30771 13.4422C3.24964 13.3841 3.20358 13.3152 3.17215 13.2393C3.14072 13.1635 3.12455 13.0821 3.12455 13C3.12455 12.9179 3.14072 12.8366 3.17215 12.7607C3.20358 12.6848 3.24964 12.6159 3.30771 12.5578Z" fill="currentFill"/>
</svg>
