<svg viewBox="0 0 20 20" fill="currentFill" xmlns="http://www.w3.org/2000/svg">
<path d="M16.0673 9.19219C16.0092 9.2503 15.9403 9.2964 15.8644 9.32785C15.7886 9.35931 15.7072 9.3755 15.6251 9.3755C15.543 9.3755 15.4616 9.35931 15.3858 9.32785C15.3099 9.2964 15.241 9.2503 15.1829 9.19219L10.6251 4.6336V16.875C10.6251 17.0408 10.5593 17.1997 10.442 17.3169C10.3248 17.4342 10.1659 17.5 10.0001 17.5C9.83434 17.5 9.67537 17.4342 9.55816 17.3169C9.44095 17.1997 9.3751 17.0408 9.3751 16.875V4.6336L4.81729 9.19219C4.70002 9.30947 4.54096 9.37535 4.3751 9.37535C4.20925 9.37535 4.05019 9.30947 3.93292 9.19219C3.81564 9.07492 3.74976 8.91586 3.74976 8.75C3.74976 8.58415 3.81564 8.42509 3.93292 8.30782L9.55792 2.68282C9.61596 2.62471 9.68489 2.57861 9.76077 2.54715C9.83664 2.5157 9.91797 2.49951 10.0001 2.49951C10.0822 2.49951 10.1636 2.5157 10.2394 2.54715C10.3153 2.57861 10.3842 2.62471 10.4423 2.68282L16.0673 8.30782C16.1254 8.36586 16.1715 8.43479 16.203 8.51067C16.2344 8.58654 16.2506 8.66787 16.2506 8.75C16.2506 8.83214 16.2344 8.91347 16.203 8.98934C16.1715 9.06521 16.1254 9.13415 16.0673 9.19219Z" fill="currentFill"/>
</svg>
