<svg  viewBox="0 0 17 16" fill="currentFill" xmlns="http://www.w3.org/2000/svg">
<path d="M14.854 4.85378L6.85403 12.8538C6.80759 12.9003 6.75245 12.9372 6.69175 12.9623C6.63105 12.9875 6.56599 13.0004 6.50028 13.0004C6.43457 13.0004 6.36951 12.9875 6.30881 12.9623C6.24811 12.9372 6.19296 12.9003 6.14653 12.8538L2.64653 9.35378C2.55271 9.25996 2.5 9.13272 2.5 9.00003C2.5 8.86735 2.55271 8.7401 2.64653 8.64628C2.74035 8.55246 2.8676 8.49976 3.00028 8.49976C3.13296 8.49976 3.26021 8.55246 3.35403 8.64628L6.50028 11.7932L14.1465 4.14628C14.2403 4.05246 14.3676 3.99976 14.5003 3.99976C14.633 3.99976 14.7602 4.05246 14.854 4.14628C14.9478 4.2401 15.0006 4.36735 15.0006 4.50003C15.0006 4.63272 14.9478 4.75996 14.854 4.85378Z" fill="currentFill"/>
</svg>
