<svg viewBox="0 0 20 21" fill="currentFill" xmlns="http://www.w3.org/2000/svg">
<path d="M10 2.375C8.39303 2.375 6.82214 2.85152 5.486 3.74431C4.14985 4.6371 3.10844 5.90605 2.49348 7.3907C1.87852 8.87535 1.71762 10.509 2.03112 12.0851C2.34463 13.6612 3.11846 15.1089 4.25476 16.2452C5.39106 17.3815 6.8388 18.1554 8.4149 18.4689C9.99099 18.7824 11.6247 18.6215 13.1093 18.0065C14.594 17.3916 15.8629 16.3502 16.7557 15.014C17.6485 13.6779 18.125 12.107 18.125 10.5C18.1227 8.34581 17.266 6.28051 15.7427 4.75727C14.2195 3.23403 12.1542 2.37727 10 2.375ZM10 17.375C8.64026 17.375 7.31105 16.9718 6.18046 16.2164C5.04987 15.4609 4.16868 14.3872 3.64833 13.1309C3.12798 11.8747 2.99183 10.4924 3.2571 9.15875C3.52238 7.82513 4.17716 6.60013 5.13864 5.63864C6.10013 4.67716 7.32514 4.02237 8.65876 3.7571C9.99238 3.49183 11.3747 3.62798 12.631 4.14833C13.8872 4.66868 14.9609 5.54987 15.7164 6.68045C16.4718 7.81104 16.875 9.14025 16.875 10.5C16.8729 12.3227 16.1479 14.0702 14.8591 15.3591C13.5702 16.6479 11.8227 17.3729 10 17.375ZM9.375 11.125V6.75C9.375 6.58424 9.44085 6.42527 9.55806 6.30806C9.67527 6.19085 9.83424 6.125 10 6.125C10.1658 6.125 10.3247 6.19085 10.4419 6.30806C10.5592 6.42527 10.625 6.58424 10.625 6.75V11.125C10.625 11.2908 10.5592 11.4497 10.4419 11.5669C10.3247 11.6842 10.1658 11.75 10 11.75C9.83424 11.75 9.67527 11.6842 9.55806 11.5669C9.44085 11.4497 9.375 11.2908 9.375 11.125ZM10.9375 13.9375C10.9375 14.1229 10.8825 14.3042 10.7795 14.4583C10.6765 14.6125 10.5301 14.7327 10.3588 14.8036C10.1875 14.8746 9.99896 14.8932 9.81711 14.857C9.63525 14.8208 9.4682 14.7315 9.33709 14.6004C9.20598 14.4693 9.11669 14.3023 9.08052 14.1204C9.04434 13.9385 9.06291 13.75 9.13387 13.5787C9.20482 13.4074 9.32499 13.261 9.47916 13.158C9.63333 13.055 9.81458 13 10 13C10.2486 13 10.4871 13.0988 10.6629 13.2746C10.8387 13.4504 10.9375 13.6889 10.9375 13.9375Z" fill="currentFill"/>
</svg>
