<svg viewBox="0 0 20 21" fill="currentFill" xmlns="http://www.w3.org/2000/svg">
<path fill-rule="evenodd" clip-rule="evenodd" d="M10 4.60095C8.2574 4.60095 6.875 5.96991 6.875 7.62179V8.35095H13.125V7.62179C13.125 5.96991 11.7426 4.60095 10 4.60095ZM5.625 7.62179V8.35095H3.75C3.40482 8.35095 3.125 8.63077 3.125 8.97595V17.726C3.125 18.0711 3.40482 18.351 3.75 18.351H16.25C16.5952 18.351 16.875 18.0711 16.875 17.726V8.97595C16.875 8.63077 16.5952 8.35095 16.25 8.35095H14.375V7.62179C14.375 5.24659 12.3995 3.35095 10 3.35095C7.60047 3.35095 5.625 5.24659 5.625 7.62179ZM11.25 12.4135C11.25 12.8842 10.9898 13.2942 10.6053 13.5074C10.6182 13.5573 10.625 13.6096 10.625 13.6635V14.9135C10.625 15.2586 10.3452 15.5385 10 15.5385C9.65482 15.5385 9.375 15.2586 9.375 14.9135V13.6635C9.375 13.6096 9.38182 13.5573 9.39465 13.5074C9.01021 13.2942 8.75 12.8842 8.75 12.4135C8.75 11.7231 9.30964 11.1635 10 11.1635C10.6904 11.1635 11.25 11.7231 11.25 12.4135Z" fill="currentFill"/>
</svg>
