<svg viewBox="0 0 18 19" fill="currentFill" xmlns="http://www.w3.org/2000/svg">
<path fill-rule="evenodd" clip-rule="evenodd" d="M7.31276 2.75C7.31276 2.43934 7.5646 2.1875 7.87526 2.1875H10.1253C10.4359 2.1875 10.6878 2.43934 10.6878 2.75V4.14234C11.4985 4.39642 12.2302 4.82908 12.8369 5.39423L14.0068 4.71875C14.2759 4.56342 14.6199 4.6556 14.7752 4.92464L15.9002 6.8732C16.0556 7.14224 15.9634 7.48626 15.6943 7.64159L14.5041 8.32875C14.5856 8.7099 14.6286 9.10537 14.6286 9.51086C14.6286 9.9442 14.5796 10.3661 14.4868 10.7713L15.6948 11.4688C15.9638 11.6241 16.056 11.9681 15.9007 12.2371L14.7757 14.1857C14.6204 14.4547 14.2763 14.5469 14.0073 14.3916L12.7778 13.6817C12.1829 14.2204 11.4723 14.6335 10.6878 14.8794V16.25C10.6878 16.5607 10.4359 16.8125 10.1253 16.8125H7.87526C7.5646 16.8125 7.31276 16.5607 7.31276 16.25V14.8773C6.53135 14.6314 5.82352 14.2194 5.23059 13.6829L4.0031 14.3916C3.73406 14.5469 3.39004 14.4547 3.23471 14.1857L2.10971 12.2371C1.95438 11.9681 2.04656 11.6241 2.3156 11.4688L3.5207 10.773C3.42769 10.3673 3.37855 9.9448 3.37855 9.51086C3.37855 9.10487 3.42156 8.70893 3.50328 8.32734L2.31552 7.64159C2.04648 7.48626 1.9543 7.14224 2.10963 6.8732L3.23463 4.92465C3.38996 4.65561 3.73398 4.56343 4.00302 4.71876L5.17129 5.39326C5.7761 4.83011 6.50513 4.39862 7.31276 4.14441V2.75ZM9.00355 12.3234C10.5569 12.3234 11.8161 11.0642 11.8161 9.51086C11.8161 7.95756 10.5569 6.69836 9.00355 6.69836C7.45025 6.69836 6.19105 7.95756 6.19105 9.51086C6.19105 11.0642 7.45025 12.3234 9.00355 12.3234Z" fill="currentFill"/>
</svg>
