<svg viewBox="0 0 19 18" fill="currentFill" xmlns="http://www.w3.org/2000/svg">
<path d="M16.25 10.6876V14.6251C16.25 14.9234 16.1315 15.2096 15.9205 15.4206C15.7095 15.6315 15.4234 15.7501 15.125 15.7501H3.875C3.57663 15.7501 3.29048 15.6315 3.0795 15.4206C2.86853 15.2096 2.75 14.9234 2.75 14.6251V10.6876C2.75 10.5384 2.80926 10.3953 2.91475 10.2898C3.02024 10.1843 3.16332 10.1251 3.3125 10.1251C3.46168 10.1251 3.60476 10.1843 3.71025 10.2898C3.81574 10.3953 3.875 10.5384 3.875 10.6876V14.6251H15.125V10.6876C15.125 10.5384 15.1843 10.3953 15.2898 10.2898C15.3952 10.1843 15.5383 10.1251 15.6875 10.1251C15.8367 10.1251 15.9798 10.1843 16.0852 10.2898C16.1907 10.3953 16.25 10.5384 16.25 10.6876ZM7.08547 6.02305L8.9375 4.17031V10.6876C8.9375 10.8368 8.99676 10.9798 9.10225 11.0853C9.20774 11.1908 9.35082 11.2501 9.5 11.2501C9.64918 11.2501 9.79226 11.1908 9.89775 11.0853C10.0032 10.9798 10.0625 10.8368 10.0625 10.6876V4.17031L11.9145 6.02305C12.0201 6.12859 12.1632 6.18789 12.3125 6.18789C12.4618 6.18789 12.6049 6.12859 12.7105 6.02305C12.816 5.9175 12.8753 5.77434 12.8753 5.62508C12.8753 5.47581 12.816 5.33266 12.7105 5.22711L9.89797 2.41461C9.84573 2.36231 9.78369 2.32082 9.7154 2.29251C9.64712 2.2642 9.57392 2.24963 9.5 2.24963C9.42608 2.24963 9.35288 2.2642 9.2846 2.29251C9.21631 2.32082 9.15427 2.36231 9.10203 2.41461L6.28953 5.22711C6.18398 5.33266 6.12469 5.47581 6.12469 5.62508C6.12469 5.77434 6.18398 5.9175 6.28953 6.02305C6.39508 6.12859 6.53823 6.18789 6.6875 6.18789C6.83677 6.18789 6.97992 6.12859 7.08547 6.02305Z" fill="currentFill"/>
</svg>
